<svg xmlns="http://www.w3.org/2000/svg" viewBox="0 0 640 480"><defs><linearGradient id="s" x1="0" y1="0" x2="1" y2="1"><stop stop-color="#312e81"/><stop offset=".55" stop-color="#7b142d"/><stop offset="1" stop-color="#d64d70"/></linearGradient><filter id="d"><feDropShadow dy="15" stdDeviation="14" flood-opacity=".2"/></filter></defs><g transform="translate(220 23)" filter="url(#d)"><path d="M64 0h72c26 0 45 22 41 48l-19 117H42L23 48C19 22 38 0 64 0z" fill="#e2e8f0"/><path d="M42 315h116l19 117c4 26-15 48-41 48H64c-26 0-45-22-41-48z" fill="#e2e8f0"/><rect y="137" width="200" height="206" rx="54" fill="#cbd5e1"/><rect x="13" y="150" width="174" height="180" rx="43" fill="#111827"/><rect x="26" y="163" width="148" height="154" rx="34" fill="url(#s)"/><circle cx="100" cy="240" r="48" fill="none" stroke="#fff" stroke-width="10" opacity=".85"/><path d="M100 203v38l27 19" fill="none" stroke="#fff" stroke-width="9" stroke-linecap="round"/><circle cx="204" cy="224" r="14" fill="#94a3b8"/></g></svg>
